<svg width="27" height="27" viewBox="0 0 27 27" fill="none" xmlns="http://www.w3.org/2000/svg">
<path fill-rule="evenodd" clip-rule="evenodd" d="M8 13.7979C8 13.5783 8.08725 13.3676 8.24255 13.2123C8.39786 13.057 8.60849 12.9698 8.82812 12.9698H17.1094C17.329 12.9698 17.5396 13.057 17.6949 13.2123C17.8503 13.3676 17.9375 13.5783 17.9375 13.7979C17.9375 14.0175 17.8503 14.2282 17.6949 14.3835C17.5396 14.5388 17.329 14.626 17.1094 14.626H8.82812C8.60849 14.626 8.39786 14.5388 8.24255 14.3835C8.08725 14.2282 8 14.0175 8 13.7979Z" fill="white"/>
<path fill-rule="evenodd" clip-rule="evenodd" d="M13.2106 19.353C13.1335 19.2761 13.0723 19.1847 13.0305 19.0841C12.9888 18.9835 12.9673 18.8756 12.9673 18.7667C12.9673 18.6577 12.9888 18.5499 13.0305 18.4493C13.0723 18.3487 13.1335 18.2573 13.2106 18.1804L17.5947 13.7979L13.2106 9.41548C13.1336 9.33849 13.0725 9.24708 13.0308 9.14648C12.9892 9.04588 12.9677 8.93806 12.9677 8.82917C12.9677 8.72028 12.9892 8.61246 13.0308 8.51186C13.0725 8.41126 13.1336 8.31985 13.2106 8.24286C13.2876 8.16586 13.379 8.10479 13.4796 8.06312C13.5802 8.02145 13.688 8 13.7969 8C13.9058 8 14.0136 8.02145 14.1142 8.06312C14.2148 8.10479 14.3062 8.16586 14.3832 8.24286L19.352 13.2116C19.4291 13.2885 19.4903 13.3799 19.532 13.4805C19.5738 13.5811 19.5952 13.689 19.5952 13.7979C19.5952 13.9068 19.5738 14.0147 19.532 14.1153C19.4903 14.2159 19.4291 14.3073 19.352 14.3842L14.3832 19.353C14.3063 19.4301 14.2149 19.4913 14.1143 19.533C14.0137 19.5748 13.9058 19.5963 13.7969 19.5963C13.688 19.5963 13.5801 19.5748 13.4795 19.533C13.3789 19.4913 13.2875 19.4301 13.2106 19.353Z" fill="white"/>
</svg>
