<svg width="76" height="61" viewBox="0 0 76 61" fill="none" xmlns="http://www.w3.org/2000/svg">
<path d="M39.1482 34.2975C39.2871 31.7943 40.5105 29.5913 42.3607 28.0263C44.3033 26.4105 46.7544 25.5332 49.2811 25.5494C51.9457 25.5494 54.3851 26.4876 56.2053 28.0263C58.0517 29.5913 59.2789 31.798 59.4178 34.2975C59.5604 36.872 58.5283 39.2626 56.7119 41.034C54.7125 42.9415 52.0481 43.9943 49.2849 43.9688C46.5191 43.9959 43.8518 42.943 41.8503 41.034C40.0377 39.2626 39.0018 36.872 39.1482 34.2975Z" fill="#265787"/>
<path d="M22.999 39.364C23.0178 40.3398 23.333 42.2425 23.7984 43.7324C24.8124 46.9367 26.5132 49.8812 28.7823 52.3604C31.2146 55.0373 34.1857 57.1693 37.5004 58.6165C41.1058 60.2071 45.0062 61.0192 48.9468 60.9997C52.891 61.0045 56.7922 60.1798 60.397 58.579C63.7073 57.1143 66.6744 54.973 69.1075 52.2929C71.3719 49.8057 73.0698 46.8569 74.0839 43.6499C74.5789 42.0832 74.8937 40.4653 75.0222 38.8274C75.376 34.0912 74.2084 29.3657 71.6896 25.3393C70.1522 22.8811 68.1887 20.7167 65.8913 18.9481L65.895 18.9443L42.443 0.934015L42.3829 0.881474C40.8405 -0.296946 38.2509 -0.293192 36.5621 0.888981C34.847 2.08617 34.6556 4.06396 36.1718 5.31744L36.1681 5.32119L45.9482 13.2812L16.1387 13.3149H16.0936C13.6317 13.3149 11.2636 14.9362 10.7945 16.9778C10.3141 19.0607 11.9879 20.787 14.5512 20.7945L14.5474 20.8058L29.6605 20.7758L2.68443 41.4769L2.5831 41.5557C0.0423662 43.5035 -0.779526 46.7423 0.819223 48.7951C2.44799 50.8818 5.90069 50.8818 8.4752 48.8026L23.1942 36.7595C23.1979 36.7595 22.984 38.3845 22.999 39.364ZM60.8211 44.8058C57.7887 47.8982 53.5479 49.6508 48.9505 49.6583C44.3495 49.6658 40.1086 47.9282 37.0725 44.8433C35.6372 43.4065 34.5309 41.6754 33.83 39.7693C33.1679 37.9568 32.9129 36.0208 33.0832 34.0987C33.2483 32.2034 33.8075 30.3945 34.7119 28.762C35.5976 27.152 36.8211 25.7034 38.3223 24.4686C41.3333 22.0474 45.0868 20.7379 48.9505 20.7607C52.8106 20.7297 56.5636 22.0284 59.5788 24.4386C61.0763 25.6621 62.2997 27.1069 63.1854 28.7132C64.0861 30.3495 64.6491 32.1509 64.8142 34.0461C64.9835 35.9679 64.7299 37.9035 64.0711 39.7168C63.363 41.6254 62.2549 43.3606 60.8211 44.8058Z" fill="#EA7600"/>
</svg>
