<svg width="40" height="40" viewBox="0 0 40 40" fill="none" xmlns="http://www.w3.org/2000/svg">
<path d="M28.2232 21.2471C28.0767 21.1004 27.9028 20.984 27.7113 20.9046C27.5198 20.8252 27.3145 20.7843 27.1072 20.7843C26.8999 20.7843 26.6946 20.8252 26.5031 20.9046C26.3116 20.984 26.1377 21.1004 25.9912 21.2471L23.4751 23.7631C22.3086 23.4159 20.1318 22.6267 18.7522 21.2471C17.3726 19.8676 16.5834 17.6909 16.2361 16.5245L18.7522 14.0084C18.8989 13.862 19.0153 13.688 19.0947 13.4965C19.1742 13.305 19.215 13.0998 19.215 12.8925C19.215 12.6852 19.1742 12.4799 19.0947 12.2884C19.0153 12.0969 18.8989 11.923 18.7522 11.7765L12.4382 5.4628C12.2918 5.31609 12.1178 5.1997 11.9263 5.12029C11.7348 5.04088 11.5295 5 11.3222 5C11.1149 5 10.9096 5.04088 10.7181 5.12029C10.5266 5.1997 10.3527 5.31609 10.2062 5.4628L5.92534 9.74351C5.32551 10.3433 4.98771 11.1673 5.00034 12.0086C5.03665 14.2562 5.63174 22.0632 11.7847 28.2159C17.9377 34.3686 25.745 34.9621 27.9943 35H28.0385C28.872 35 29.6596 34.6717 30.2563 34.075L34.5372 29.7943C34.6839 29.6479 34.8003 29.4739 34.8797 29.2824C34.9591 29.0909 35 28.8857 35 28.6784C35 28.4711 34.9591 28.2658 34.8797 28.0743C34.8003 27.8828 34.6839 27.7089 34.5372 27.5624L28.2232 21.2471ZM28.0227 31.8416C26.0528 31.8084 19.3126 31.2796 14.0167 25.9824C8.7035 20.6694 8.18891 13.9058 8.15734 11.9754L11.3222 8.81065L15.4042 12.8925L13.3632 14.9334C13.1777 15.1188 13.0413 15.3475 12.9663 15.5988C12.8913 15.8501 12.8802 16.1162 12.9339 16.3729C12.9718 16.5544 13.8983 20.8588 16.5186 23.479C19.1389 26.0992 23.4435 27.0258 23.625 27.0636C23.8816 27.1188 24.1479 27.1086 24.3995 27.0338C24.6511 26.9591 24.8798 26.8222 25.0646 26.6359L27.1072 24.595L31.1892 28.6768L28.0227 31.8416V31.8416Z" fill="black"/>
</svg>
