<svg width="103" height="61" viewBox="0 0 103 61" fill="none" xmlns="http://www.w3.org/2000/svg">
<g clip-path="url(#clip0)">
<path d="M75.2794 -7.15801e-05C74.242 -0.00184058 73.2223 0.494333 72.5964 1.41708C69.3027 6.27231 71.1287 10.2022 72.8182 13.8353C73.6471 15.6194 74.4063 17.2618 73.1322 18.2279C71.7116 19.3054 71.4345 21.3334 72.512 22.754C73.5895 24.1746 75.6174 24.4537 77.0381 23.3761C82.4737 19.2497 80.6719 15.3643 78.7005 11.1247C77.7473 9.07544 76.7172 6.85419 77.9448 5.04426C78.9463 3.56806 78.5613 1.5589 77.0851 0.557407C76.5526 0.195078 75.9235 0.000897743 75.2794 -1.05802e-05L75.2794 -7.15801e-05ZM12.9646 7.36219C8.07421 7.36219 3.42076 9.77133 0.613108 13.7784C-0.457138 15.2998 -0.0899179 17.403 1.43155 18.4732C2.95301 19.5435 5.05416 19.1762 6.12446 17.6548C8.82988 13.7981 14.1339 12.9841 17.8537 15.6665L17.8577 15.6626C18.1 15.8397 18.3326 16.0297 18.5545 16.2318L18.582 16.2593L18.6409 16.3222C18.8646 16.5285 19.0861 16.7503 19.2886 16.9836L19.3417 17.0504L19.3495 17.0642L19.3515 17.0622L19.4143 17.1427L19.4319 17.1623C20.6757 18.545 22.809 18.6553 24.1915 17.4116C25.5684 16.1736 25.6868 14.0543 24.4604 12.6697C21.6276 9.34719 17.3651 7.36244 12.9646 7.36244L12.9646 7.36219ZM43.4322 7.36219C38.5419 7.36219 33.8883 9.77133 31.0807 13.7784C30.0104 15.2998 30.3757 17.403 31.8972 18.4732C33.4186 19.5435 35.5218 19.1762 36.592 17.6548C39.2975 13.7981 44.5996 12.9841 48.3194 15.6665L48.3234 15.6626C48.5394 15.8208 48.7792 16.01 49.0222 16.2318L49.0497 16.2593L49.1086 16.3222C49.3323 16.5285 49.5518 16.7503 49.7543 16.9836L49.8092 17.0504L49.8171 17.0642L49.8191 17.0622L49.8819 17.1427L49.8995 17.1623C51.1434 18.5449 53.2765 18.6552 54.6591 17.4116C56.0359 16.1736 56.1525 14.0542 54.926 12.6696C52.0933 9.34713 47.8328 7.36238 43.4323 7.36238L43.4322 7.36219ZM55.9996 28.4655C54.527 28.4655 53.3303 29.6621 53.3303 31.1348L53.3421 31.333L53.3186 48.1242H53.3088V48.136H53.3186C53.3216 51.6683 54.7706 54.8867 57.091 57.2117L57.0989 57.2157L57.1028 57.2216L57.1166 57.2334C59.4385 59.5446 62.6366 60.9825 66.1491 60.9901V60.9999H79.8825C79.9861 60.9999 80.09 60.991 80.1906 60.9803C81.0306 60.9544 81.8444 60.8513 82.6205 60.6761C83.5109 60.4733 84.3573 60.1827 85.1485 59.8184C88.4903 58.274 91.0754 55.323 92.1319 51.7358H94.0201V51.726C96.2338 51.723 98.2478 50.8183 99.7023 49.3609C101.143 47.9186 102.042 45.9184 102.05 43.72V43.7102H102.06V36.5049H102.05C102.047 34.2959 101.141 32.2821 99.6885 30.8306L99.6944 30.8267C98.2522 29.3845 96.2492 28.4864 94.0417 28.4773H94.0319V28.4655H56H55.9996ZM92.8264 34.5971C93.4985 34.6013 94.1196 34.8873 94.5771 35.3449L94.583 35.339L94.5869 35.3449C95.0431 35.7996 95.3295 36.4278 95.3308 37.1114H95.321V43.7847H95.3308C95.3252 44.4625 95.0384 45.0906 94.585 45.5453C94.1304 46.0015 93.4996 46.2859 92.8145 46.2872V46.2774H89.0441V46.2853C87.7859 46.2853 86.7071 47.2487 86.5926 48.5268C86.3596 51.049 84.7564 53.1999 82.5337 54.2265C82.0946 54.4284 81.6372 54.5891 81.1755 54.6936C80.7532 54.7882 80.3199 54.8469 79.8879 54.8625L79.7191 54.8585H66.9986V54.8683C65.1176 54.8655 63.3971 54.092 62.1389 52.8506L62.0937 52.8074C60.8284 51.5434 60.038 49.797 60.0367 47.8849H60.0465V47.8751H60.0367L60.0543 34.607H92.8261V34.5971L92.8264 34.5971ZM87.8331 37.9357V43.8239H89.8194C91.1029 43.8239 92.1531 42.7733 92.1531 41.4882V40.2732C92.1531 38.9882 91.103 37.9356 89.8194 37.9356H87.8331V37.9357ZM18.841 38.6973C17.0007 38.6973 15.5063 40.1916 15.5063 42.0319C15.5063 43.8723 17.0007 45.3666 18.841 45.3666L36.9336 45.3686C38.774 45.3686 40.2683 43.8743 40.2683 42.0339C40.2683 40.1935 38.774 38.6992 36.9336 38.6992L18.841 38.6973Z" fill="#6065E9"/>
</g>
<defs>
<clipPath id="clip0">
<rect width="102.053" height="61" fill="white"/>
</clipPath>
</defs>
</svg>
