<svg width="24" height="24" viewBox="0 0 24 24" fill="none" xmlns="http://www.w3.org/2000/svg">
<path d="M9.51001 17.6925C9.51001 17.6925 8.78402 18.1159 10.0254 18.2578C11.5296 18.4312 12.2989 18.4068 13.9549 18.0909C13.9549 18.0909 14.3896 18.3664 14.9988 18.6045C11.2829 20.1976 6.59006 18.509 9.50942 17.6925H9.51001ZM9.05508 15.6144C9.05508 15.6144 8.23954 16.217 9.48154 16.3435C11.0919 16.5104 12.3576 16.5264 14.5539 16.103C14.5539 16.103 14.857 16.4094 15.3363 16.5786C10.8445 17.8926 5.83976 16.6808 9.05568 15.6144H9.05508ZM12.8825 12.0863C13.7965 13.1408 12.6411 14.0902 12.6411 14.0902C12.6411 14.0902 14.9644 12.8867 13.8985 11.3845C12.9015 9.98022 12.1352 9.28492 16.274 6.88139C16.274 6.88139 9.77751 8.50532 12.8819 12.0869L12.8825 12.0863ZM17.7948 19.2327C17.7948 19.2327 18.3327 19.6745 17.2046 20.0183C15.0605 20.6673 8.27987 20.862 6.39551 20.0426C5.71935 19.7487 6.98864 19.3378 7.38722 19.2541C7.80418 19.1615 8.04203 19.1805 8.04203 19.1805C7.28817 18.6485 3.17366 20.2225 5.95126 20.6738C13.529 21.9046 19.7622 20.1204 17.7948 19.2327ZM9.85877 13.459C9.85877 13.459 6.40856 14.2784 8.63515 14.5753C9.57763 14.7018 11.4531 14.6745 13.2016 14.526C14.6281 14.4049 16.0623 14.1484 16.0623 14.1484C16.0623 14.1484 15.5587 14.3645 15.1939 14.6157C11.6903 15.5372 4.92279 15.1073 6.87179 14.1644C8.51831 13.3694 9.85877 13.459 9.85877 13.459ZM16.0462 16.9224C19.605 15.0669 17.9585 13.2886 16.8126 13.5303C16.5308 13.5855 16.4045 13.6389 16.4045 13.6389C16.4045 13.6389 16.5065 13.4745 16.7076 13.4038C18.981 12.6028 20.7296 15.7628 15.9751 17.0156C15.9751 17.0127 16.0314 16.9664 16.0462 16.923V16.9224ZM13.8991 3C13.8991 3 15.8707 4.97306 12.0272 8.00953C8.94773 10.4463 11.3256 11.8351 12.0272 13.4216C10.2295 11.7977 8.91036 10.3697 9.79412 9.0397C11.0942 7.08208 14.6933 6.13563 13.8991 3ZM10.2075 21.9415C13.6245 22.1576 18.8725 21.818 19 20.2006C19 20.2006 18.7586 20.8127 16.1726 21.3008C13.2568 21.8512 9.6577 21.7859 7.52304 21.4338C7.52304 21.4338 7.96195 21.7954 10.2069 21.9415H10.2075Z" fill="#212121"/>
</svg>
