<svg width="132" height="241" viewBox="0 0 132 241" fill="none" xmlns="http://www.w3.org/2000/svg">
<rect x="-41.5" y="1.5" width="159" height="238" rx="6.5" stroke="#212121" stroke-width="3"/>
<rect x="111" y="6" width="2" height="67" rx="1" fill="#212121"/>
<rect x="117" y="4" width="2" height="67" rx="1" fill="#212121"/>
<rect x="124" y="2" width="2" height="67" rx="1" fill="#212121"/>
<rect x="130" width="2" height="67" rx="1" fill="#212121"/>
<rect x="110" y="102" width="22" height="2" fill="#212121"/>
<rect x="110" y="110" width="22" height="5" fill="#212121"/>
<rect x="110" y="120" width="22" height="2" fill="#212121"/>
<rect x="110" y="128" width="22" height="5" fill="#212121"/>
<rect x="110" y="138" width="22" height="2" fill="#212121"/>
<rect x="110" y="146" width="22" height="5" fill="#212121"/>
<rect x="110" y="156" width="22" height="2" fill="#212121"/>
<rect x="110" y="164" width="22" height="5" fill="#212121"/>
<rect x="110" y="174" width="22" height="2" fill="#212121"/>
<rect x="110" y="182" width="22" height="5" fill="#212121"/>
<rect x="110" y="192" width="22" height="2" fill="#212121"/>
<rect x="110" y="200" width="22" height="5" fill="#212121"/>
<rect x="110" y="210" width="22" height="2" fill="#212121"/>
<rect x="110" y="218" width="22" height="5" fill="#212121"/>
<rect x="110" y="228" width="22" height="2" fill="#212121"/>
<rect x="110" y="236" width="22" height="5" fill="#212121"/>
</svg>
