<svg width="15" height="15" viewBox="0 0 15 15" fill="none" xmlns="http://www.w3.org/2000/svg">
<path d="M8.54941 0.0698384C7.31278 -0.0994255 6.05348 0.0401314 4.88391 0.476052C3.71435 0.911973 2.67091 1.63069 1.84674 2.56806C1.14137 3.38044 0.618017 4.33435 0.311824 5.36573C0.00563124 6.39711 -0.076308 7.48207 0.0715102 8.54774C0.469006 11.4682 2.66498 13.9529 5.5352 14.7322C6.17504 14.9073 6.83531 14.9966 7.49868 14.9977L7.60518 14.9969C7.98433 14.992 8.35611 14.8914 8.68599 14.7045C9.01588 14.5175 9.29318 14.2502 9.49215 13.9274C9.6918 13.6064 9.80701 13.2401 9.82707 12.8626C9.84713 12.4851 9.7714 12.1086 9.6069 11.7682L9.45765 11.4562C9.34286 11.2319 9.28896 10.9814 9.30133 10.7298C9.3137 10.4782 9.39192 10.2342 9.52815 10.0222C9.72309 9.70557 10.0285 9.47242 10.3853 9.36783C10.7422 9.26325 11.1251 9.29465 11.4601 9.45598L11.7691 9.60373C12.0781 9.75223 12.4066 9.82798 12.7449 9.82798C13.3368 9.82494 13.9041 9.59044 14.3254 9.1746C14.7467 8.75877 14.9886 8.19461 14.9993 7.60275C15.0086 6.90376 14.9195 6.20693 14.7346 5.53278C13.9546 2.66331 11.4699 0.467334 8.54941 0.0698384ZM12.4179 8.2515L12.1089 8.10375C10.7379 7.44526 9.05641 7.95525 8.25767 9.22424C7.70417 10.1062 7.64792 11.1562 8.10467 12.1057L8.25392 12.4177C8.30986 12.531 8.33572 12.6569 8.32902 12.7831C8.32233 12.9093 8.28329 13.0317 8.21567 13.1384C8.14976 13.2475 8.05694 13.3378 7.9461 13.4008C7.83526 13.4637 7.71012 13.497 7.58268 13.4977H7.49868C6.96789 13.4962 6.4396 13.4249 5.92744 13.2854C3.63022 12.6622 1.87524 10.6762 1.55799 8.34599C1.31725 6.57976 1.82199 4.87878 2.97773 3.5543C3.63527 2.79998 4.471 2.22205 5.40887 1.8731C6.34674 1.52415 7.35698 1.41526 8.34767 1.55632C10.6779 1.87357 12.6639 3.6293 13.2871 5.92577C13.4356 6.47327 13.5069 7.03126 13.4986 7.581C13.4896 8.18625 12.8649 8.46824 12.4179 8.2515Z" fill="#212121"/>
<path d="M4.12439 10.4977C4.7457 10.4977 5.24938 9.99405 5.24938 9.37274C5.24938 8.75142 4.7457 8.24775 4.12439 8.24775C3.50308 8.24775 2.9994 8.75142 2.9994 9.37274C2.9994 9.99405 3.50308 10.4977 4.12439 10.4977Z" fill="#212121"/>
<path d="M4.12439 7.49775C4.7457 7.49775 5.24938 6.99408 5.24938 6.37277C5.24938 5.75145 4.7457 5.24778 4.12439 5.24778C3.50308 5.24778 2.9994 5.75145 2.9994 6.37277C2.9994 6.99408 3.50308 7.49775 4.12439 7.49775Z" fill="#212121"/>
<path d="M6.37435 5.24778C6.99566 5.24778 7.49934 4.7441 7.49934 4.12279C7.49934 3.50148 6.99566 2.9978 6.37435 2.9978C5.75304 2.9978 5.24936 3.50148 5.24936 4.12279C5.24936 4.7441 5.75304 5.24778 6.37435 5.24778Z" fill="#212121"/>
<path d="M9.37436 5.24778C9.99568 5.24778 10.4994 4.7441 10.4994 4.12279C10.4994 3.50148 9.99568 2.9978 9.37436 2.9978C8.75305 2.9978 8.24938 3.50148 8.24938 4.12279C8.24938 4.7441 8.75305 5.24778 9.37436 5.24778Z" fill="#212121"/>
</svg>
