<svg width="40" height="60" viewBox="0 0 40 60" fill="none" xmlns="http://www.w3.org/2000/svg">
<path d="M30.0006 39.9972C35.5231 39.9972 40 35.5204 40 29.9978C40 24.4753 35.5231 19.9985 30.0006 19.9985C24.4781 19.9985 20.0012 24.4753 20.0012 29.9978C20.0012 35.5204 24.4781 39.9972 30.0006 39.9972Z" fill="#19BCFE"/>
<path fill-rule="evenodd" clip-rule="evenodd" d="M9.99939 59.9966C12.6514 59.9966 15.1948 58.9431 17.07 57.0679C18.9453 55.1926 19.9988 52.6492 19.9988 49.9972V39.9978H9.99939C7.34738 39.9978 4.804 41.0514 2.92875 42.9266C1.0535 44.8019 0 47.3452 0 49.9972C0 52.6492 1.0535 55.1926 2.92875 57.0679C4.804 58.9431 7.34738 59.9966 9.99939 59.9966V59.9966Z" fill="#09CF83"/>
<path fill-rule="evenodd" clip-rule="evenodd" d="M9.99939 39.9972H19.9988V19.9985H9.99939C7.34738 19.9985 4.804 21.052 2.92875 22.9272C1.0535 24.8025 0 27.3458 0 29.9978C0 32.6498 1.0535 35.1932 2.92875 37.0685C4.804 38.9437 7.34738 39.9972 9.99939 39.9972V39.9972Z" fill="#A259FF"/>
<path fill-rule="evenodd" clip-rule="evenodd" d="M9.99939 19.9988H19.9988V0H9.99939C7.34738 0 4.804 1.0535 2.92875 2.92875C1.0535 4.804 0 7.34738 0 9.99939C0 12.6514 1.0535 15.1948 2.92875 17.07C4.804 18.9453 7.34738 19.9988 9.99939 19.9988V19.9988Z" fill="#F24E1E"/>
<path fill-rule="evenodd" clip-rule="evenodd" d="M30.0006 19.9988H20.0012V0H30.0006C32.6526 0 35.196 1.0535 37.0712 2.92875C38.9465 4.804 40 7.34738 40 9.99939C40 12.6514 38.9465 15.1948 37.0712 17.07C35.196 18.9453 32.6526 19.9988 30.0006 19.9988Z" fill="#FF7262"/>
</svg>
