<svg width="40" height="40" viewBox="0 0 40 40" fill="none" xmlns="http://www.w3.org/2000/svg">
<path d="M19.4958 11.547C15.0948 11.547 11.543 15.0989 11.543 19.5C11.543 23.9011 15.0948 27.453 19.4958 27.453C23.8969 27.453 27.4487 23.9011 27.4487 19.5C27.4487 15.0989 23.8969 11.547 19.4958 11.547ZM19.4958 24.6689C16.6497 24.6689 14.3271 22.3462 14.3271 19.5C14.3271 16.6538 16.6497 14.3311 19.4958 14.3311C22.342 14.3311 24.6646 16.6538 24.6646 19.5C24.6646 22.3462 22.342 24.6689 19.4958 24.6689ZM27.7744 9.36778C26.7468 9.36778 25.9171 10.1976 25.9171 11.2252C25.9171 12.2527 26.7468 13.0825 27.7744 13.0825C28.8019 13.0825 29.6317 12.2566 29.6317 11.2252C29.6321 10.9812 29.5842 10.7395 29.491 10.514C29.3978 10.2885 29.261 10.0836 29.0884 9.91111C28.9159 9.73858 28.711 9.60177 28.4855 9.50854C28.2601 9.41531 28.0184 9.36747 27.7744 9.36778V9.36778ZM34.9983 19.5C34.9983 17.3596 35.0177 15.2385 34.8975 13.1019C34.7773 10.6203 34.2111 8.41776 32.3964 6.60304C30.5779 4.78443 28.3793 4.22218 25.8977 4.10197C23.7573 3.98177 21.6362 4.00115 19.4997 4.00115C17.3593 4.00115 15.2383 3.98177 13.1018 4.10197C10.6201 4.22218 8.41768 4.78831 6.60299 6.60304C4.78442 8.42164 4.22217 10.6203 4.10197 13.1019C3.98177 15.2424 4.00115 17.3634 4.00115 19.5C4.00115 21.6366 3.98177 23.7615 4.10197 25.8981C4.22217 28.3798 4.7883 30.5822 6.60299 32.397C8.42156 34.2156 10.6201 34.7778 13.1018 34.898C15.2422 35.0182 17.3632 34.9988 19.4997 34.9988C21.6401 34.9988 23.7611 35.0182 25.8977 34.898C28.3793 34.7778 30.5817 34.2117 32.3964 32.397C34.215 30.5784 34.7773 28.3798 34.8975 25.8981C35.0215 23.7615 34.9983 21.6404 34.9983 19.5V19.5ZM31.586 28.6434C31.303 29.3492 30.9617 29.8765 30.415 30.4194C29.8683 30.9661 29.3448 31.3074 28.6391 31.5904C26.5995 32.4008 21.7564 32.2186 19.4958 32.2186C17.2352 32.2186 12.3883 32.4008 10.3487 31.5943C9.64299 31.3112 9.11564 30.97 8.57278 30.4233C8.02605 29.8765 7.68482 29.353 7.40176 28.6473C6.59523 26.6038 6.77748 21.7607 6.77748 19.5C6.77748 17.2393 6.59523 12.3923 7.40176 10.3527C7.68482 9.64697 8.02605 9.11961 8.57278 8.57675C9.11952 8.03388 9.64299 7.68877 10.3487 7.4057C12.3883 6.59916 17.2352 6.78141 19.4958 6.78141C21.7564 6.78141 26.6034 6.59916 28.643 7.4057C29.3487 7.68877 29.876 8.03 30.4189 8.57675C30.9656 9.12349 31.3068 9.64697 31.5899 10.3527C32.3964 12.3923 32.2142 17.2393 32.2142 19.5C32.2142 21.7607 32.3964 26.6038 31.586 28.6434Z" fill="black"/>
</svg>
