<svg width="61" height="61" viewBox="0 0 61 61" fill="none" xmlns="http://www.w3.org/2000/svg">
<path d="M0 0H61V61H0V0Z" fill="#F1DC50"/>
<path d="M16.0702 50.8413L20.71 48.017C21.6053 49.6132 22.4196 50.9639 24.3729 50.9639C26.2452 50.9639 27.4259 50.2274 27.4259 47.3621V27.8763H33.1237V47.4431C33.1237 53.3788 29.6643 56.0806 24.6171 56.0806C20.0589 56.0806 17.4131 53.7063 16.0699 50.8408" fill="#333333"/>
<path d="M36.4034 50.2265L41.086 47.525C42.3188 49.531 43.9209 51.0045 46.7551 51.0045C49.1383 51.0045 50.6577 49.8173 50.6577 48.1798C50.6577 46.215 49.0967 45.519 46.4676 44.3732L45.0301 43.7586C40.8809 41.9989 38.1287 39.7883 38.1287 35.1217C38.1287 30.8233 41.4149 27.5484 46.55 27.5484C50.2061 27.5484 52.8352 28.8176 54.7247 32.1333L50.2467 34.999C49.2607 33.2388 48.193 32.543 46.5498 32.543C44.8654 32.543 43.7973 33.6073 43.7973 34.999C43.7973 36.7182 44.8654 37.4145 47.3301 38.4788L48.7677 39.0927C53.6564 41.1806 56.4086 43.3091 56.4086 48.0981C56.4086 53.2564 52.3418 56.0806 46.8783 56.0806C41.5381 56.0806 38.0873 53.5427 36.4032 50.2268" fill="#333333"/>
</svg>
