<svg width="18" height="18" viewBox="0 0 18 18" fill="none" xmlns="http://www.w3.org/2000/svg">
<path d="M16.5001 3.99996C16.2791 3.99996 16.0671 4.08776 15.9108 4.24404C15.7545 4.40032 15.6668 4.61228 15.6668 4.83329V13.1666C15.6668 13.8297 15.4034 14.4656 14.9345 14.9344C14.4657 15.4032 13.8298 15.6666 13.1667 15.6666H4.83342C4.6124 15.6666 4.40044 15.7544 4.24416 15.9107C4.08788 16.067 4.00008 16.2789 4.00008 16.5C4.00008 16.721 4.08788 16.9329 4.24416 17.0892C4.40044 17.2455 4.6124 17.3333 4.83342 17.3333H13.1667C14.2718 17.3333 15.3316 16.8943 16.113 16.1129C16.8944 15.3315 17.3334 14.2717 17.3334 13.1666V4.83329C17.3334 4.61228 17.2456 4.40032 17.0893 4.24404C16.9331 4.08776 16.7211 3.99996 16.5001 3.99996ZM14.0001 11.5V3.16663C14.0001 2.50358 13.7367 1.8677 13.2679 1.39886C12.799 0.930018 12.1631 0.666626 11.5001 0.666626H3.16675C2.50371 0.666626 1.86782 0.930018 1.39898 1.39886C0.93014 1.8677 0.666748 2.50358 0.666748 3.16663V11.5C0.666748 12.163 0.93014 12.7989 1.39898 13.2677C1.86782 13.7366 2.50371 14 3.16675 14H11.5001C12.1631 14 12.799 13.7366 13.2679 13.2677C13.7367 12.7989 14.0001 12.163 14.0001 11.5V11.5ZM7.33342 2.33329H9.00008V6.38329L8.70008 6.13329C8.55034 6.00857 8.36163 5.94027 8.16675 5.94027C7.97187 5.94027 7.78316 6.00857 7.63342 6.13329L7.33342 6.38329V2.33329ZM2.33342 11.5V3.16663C2.33342 2.94561 2.42121 2.73365 2.57749 2.57737C2.73377 2.42109 2.94573 2.33329 3.16675 2.33329H5.66675V8.16663C5.66674 8.32593 5.71239 8.4819 5.79829 8.61606C5.8842 8.75021 6.00676 8.85694 6.15145 8.92358C6.29614 8.99023 6.45691 9.014 6.6147 8.99209C6.77248 8.97019 6.92069 8.90351 7.04175 8.79996L8.16675 7.85829L9.29175 8.79996C9.4427 8.92905 9.6348 8.99998 9.83342 8.99996C9.95398 8.99911 10.0731 8.97358 10.1834 8.92496C10.3281 8.85802 10.4505 8.75099 10.5362 8.61658C10.6218 8.48217 10.6671 8.32602 10.6667 8.16663V2.33329H11.5001C11.7211 2.33329 11.9331 2.42109 12.0893 2.57737C12.2456 2.73365 12.3334 2.94561 12.3334 3.16663V11.5C12.3334 11.721 12.2456 11.9329 12.0893 12.0892C11.9331 12.2455 11.7211 12.3333 11.5001 12.3333H3.16675C2.94573 12.3333 2.73377 12.2455 2.57749 12.0892C2.42121 11.9329 2.33342 11.721 2.33342 11.5Z" fill="#212121"/>
</svg>
