<svg width="37" height="23" viewBox="0 0 37 23" fill="none" xmlns="http://www.w3.org/2000/svg">
<path d="M1.64258 0.736328L3.9082 1.30273H6.28711C11.2715 1.30273 13.7637 2.13346 13.7637 3.79492C12.7064 6.36263 10.403 10.6484 6.85352 16.6523L6.45703 17.6719V17.8984L9.11914 18.0684H12.5176C14.1035 18.0684 15.9538 17.7663 18.0684 17.1621C19.0124 17.653 19.4844 18.2005 19.4844 18.8047C19.4844 20.3151 17.1621 21.2025 12.5176 21.4668H10.5352C4.94661 21.4668 2.15234 20.7493 2.15234 19.3145C2.15234 18.3327 4.66341 13.6315 9.68555 5.21094V4.81445L9.51562 4.70117H4.70117C1.56706 4.47461 0 3.75716 0 2.54883C0 1.7181 0.547526 1.11393 1.64258 0.736328Z" fill="#212121"/>
<path d="M30.6222 0C33.3787 1.32161 34.7003 5.5319 34.587 12.6309C34.7758 16.4069 35.2856 19.0312 36.1163 20.5039V20.7305C36.0408 21.5234 35.4366 22.0332 34.3038 22.2598C32.227 22.071 31.1697 16.9355 31.132 6.85352L30.339 4.24805L29.6593 4.19141C28.3754 5.73958 27.6391 7.6276 27.4503 9.85547C27.2238 11.5169 27.1671 14.2168 27.2804 17.9551C26.714 18.9746 26.0532 19.4466 25.298 19.3711C24.0141 19.1823 23.4288 16.7279 23.5421 12.0078C22.8624 7.21224 22.1261 4.77669 21.3331 4.70117H20.9933C19.8605 5.04102 19.1808 6.23047 18.9542 8.26953L19.5206 19.2578L19.464 19.9941C19.3507 20.8249 18.6899 21.3913 17.4816 21.6934C15.5935 21.5046 14.9327 14.9154 15.4991 1.92578C15.6124 1.13281 16.1977 0.604167 17.255 0.339844C18.3123 0.755208 18.8221 1.22721 18.7843 1.75586H18.9542L21.503 1.35938C22.7869 1.51042 24.0708 2.52995 25.3546 4.41797L25.4679 4.47461C27.2426 1.86914 28.9607 0.377604 30.6222 0Z" fill="#212121"/>
</svg>
