<svg width="21" height="20" viewBox="0 0 21 20" fill="none" xmlns="http://www.w3.org/2000/svg">
<path d="M19.7499 10.79C19.5883 12.4922 18.9317 14.1144 17.857 15.4668C16.7824 16.8192 15.3341 17.8458 13.6816 18.4265C12.0292 19.0073 10.2409 19.1181 8.52609 18.7461C6.81126 18.3741 5.24079 17.5345 3.99845 16.3258C2.7561 15.117 1.89327 13.589 1.5109 11.9205C1.12853 10.252 1.24245 8.51208 1.83933 6.9043C2.4362 5.29651 3.49135 3.88737 4.8813 2.84175C6.27125 1.79614 7.93851 1.15731 9.688 1C8.66372 2.34827 8.17084 4.00945 8.29899 5.68141C8.42713 7.35338 9.1678 8.92506 10.3863 10.1106C11.6047 11.2961 13.2201 12.0168 14.9385 12.1415C16.6569 12.2662 18.3642 11.7866 19.7499 10.79V10.79Z" stroke="black" stroke-width="2" stroke-linecap="round" stroke-linejoin="round"/>
</svg>
