<svg width="67" height="61" viewBox="0 0 67 61" fill="none" xmlns="http://www.w3.org/2000/svg">
<path d="M55.0873 19.7713C54.3743 19.521 53.6552 19.2891 52.9308 19.0758C53.0525 18.567 53.1645 18.0643 53.264 17.5704C54.8966 9.46062 53.8293 2.9272 50.1838 0.776089C46.6885 -1.28611 40.9723 0.864201 35.1993 6.0055C34.6304 6.5131 34.0741 7.03534 33.5309 7.5717C33.1673 7.21503 32.7972 6.86529 32.4209 6.52265C26.3705 1.02543 20.306 -1.29146 16.6644 0.865808C13.1723 2.93443 12.1383 9.0763 13.6081 16.7621C13.7543 17.5233 13.9194 18.2806 14.1032 19.0332C13.2448 19.2828 12.4165 19.5485 11.6237 19.8313C4.53009 22.3622 0 26.3283 0 30.4423C0 34.6912 4.86326 38.953 12.2516 41.5371C12.8506 41.7458 13.4545 41.9391 14.0629 42.117C13.8653 42.9276 13.6899 43.7437 13.5369 44.5643C12.1356 52.1167 13.2299 58.1135 16.7126 60.169C20.3096 62.2917 26.347 60.11 32.2254 54.8514C32.7021 54.4239 33.1683 53.9843 33.6235 53.533C34.2118 54.1138 34.8157 54.6776 35.4346 55.224C41.1291 60.2381 46.7529 62.2628 50.2322 60.2016C53.8259 58.0728 54.9939 51.6307 53.4775 43.793C53.3581 43.179 53.2241 42.568 53.0758 41.9606C53.4998 41.832 53.9159 41.6997 54.3216 41.5621C62.0025 38.9581 67 34.748 67 30.4423C67 26.3133 62.3236 22.3204 55.0873 19.7713ZM53.4215 38.7821C53.0551 38.9061 52.6793 39.0258 52.2961 39.1423C51.4481 36.3953 50.3039 33.4745 48.9035 30.4565C50.2398 27.5105 51.3401 24.6269 52.1642 21.8978C52.8497 22.1008 53.5147 22.3148 54.1559 22.5406C60.356 24.7249 64.1378 27.954 64.1378 30.4423C64.1378 33.0926 60.0535 36.5332 53.4215 38.7821ZM50.6698 44.3618C51.3403 47.8274 51.4358 50.9608 50.9917 53.4106C50.5928 55.6118 49.7904 57.0791 48.798 57.667C46.6867 58.9177 42.1713 57.2921 37.3015 53.0038C36.7258 52.4958 36.164 51.9716 35.6168 51.4317C37.5048 49.3189 39.3916 46.8627 41.233 44.1347C44.472 43.8406 47.5321 43.3596 50.3071 42.7032C50.4437 43.2675 50.5651 43.8208 50.6698 44.3618ZM22.8418 57.4509C20.7789 58.1962 19.1358 58.2176 18.1426 57.6317C16.0292 56.3844 15.1506 51.5693 16.349 45.1106C16.4915 44.3474 16.6546 43.5884 16.8382 42.8345C19.5826 43.4558 22.6204 43.9025 25.867 44.1719C27.721 46.8413 29.6622 49.2948 31.6185 51.4432C31.2027 51.8549 30.7772 52.256 30.3421 52.6462C27.7424 54.9714 25.1376 56.6212 22.8418 57.4509ZM13.1775 38.7658C9.9105 37.623 7.21245 36.1379 5.36314 34.5174C3.70123 33.0613 2.86242 31.6153 2.86242 30.4423C2.86242 27.9457 6.49952 24.7613 12.5659 22.5971C13.3021 22.3346 14.0726 22.0869 14.8722 21.8544C15.7107 24.6451 16.8105 27.563 18.1376 30.5135C16.7932 33.5077 15.6777 36.4722 14.8311 39.2958C14.2757 39.133 13.7244 38.9563 13.1775 38.7658ZM16.4171 16.1994C15.158 9.61461 15.9942 4.64739 18.0986 3.4007C20.34 2.07286 25.2964 3.96607 30.5206 8.71287C30.8613 9.0231 31.1964 9.33963 31.5259 9.66228C29.5792 11.8013 27.6558 14.2366 25.8183 16.8901C22.6672 17.189 19.6509 17.669 16.8777 18.312C16.7069 17.612 16.5533 16.9077 16.4171 16.1997V16.1994ZM45.3179 23.5023C44.6629 22.3445 43.9836 21.2013 43.2804 20.0734C45.4181 20.3501 47.4664 20.7173 49.3897 21.1661C48.8124 23.0601 48.0927 25.0401 47.2455 27.0702C46.6262 25.8679 45.9836 24.6783 45.3179 23.5023ZM33.5322 11.7555C34.8523 13.2192 36.1745 14.8531 37.475 16.6261C34.8369 16.4986 32.1943 16.498 29.5562 16.6245C30.8579 14.8679 32.1914 13.236 33.5322 11.7555ZM21.6708 23.5224C21.0135 24.689 20.3828 25.8711 19.7794 27.0678C18.9461 25.0449 18.2329 23.0558 17.6506 21.1351C19.5622 20.6974 21.6007 20.3396 23.7248 20.0681C23.0138 21.2028 22.329 22.3545 21.6708 23.5221V23.5224ZM23.7858 41.0248C21.5913 40.7741 19.5221 40.4348 17.6111 40.009C18.2025 38.0539 18.9314 36.0225 19.7828 33.9563C20.3886 35.1539 21.0219 36.3367 21.6821 37.5038C22.361 38.7036 23.064 39.8788 23.7858 41.0248ZM33.6112 49.3352C32.2545 47.8376 30.9014 46.1806 29.58 44.3985C30.8629 44.4499 32.1707 44.4762 33.5 44.4762C34.8657 44.4762 36.2156 44.4448 37.5443 44.3843C36.2397 46.1985 34.9224 47.8579 33.6112 49.3352ZM47.2724 33.8508C48.168 35.9398 48.9228 37.9604 49.5222 39.882C47.5797 40.3357 45.4823 40.701 43.2723 40.9723C43.9805 39.8235 44.6662 38.6604 45.3292 37.4837C46.0032 36.2877 46.6511 35.0764 47.2724 33.8508ZM42.8499 36.0204C41.835 37.8245 40.7631 39.5944 39.6357 41.3272C37.5937 41.4752 35.5472 41.5487 33.5 41.5476C31.4149 41.5476 29.3868 41.4812 27.4339 41.3515C26.2771 39.6227 25.1847 37.8498 24.159 36.0364H24.1593C23.1383 34.2327 22.1847 32.39 21.3005 30.5122C22.1825 28.6339 23.1332 26.7903 24.1506 24.9852L24.1504 24.9855C25.1674 23.1799 26.2511 21.4145 27.3991 19.6931C29.3915 19.5389 31.4348 19.4585 33.4997 19.4585H33.5C35.5744 19.4585 37.6202 19.5397 39.6122 19.695C40.7486 21.4138 41.8253 23.1731 42.8405 24.9697C43.8613 26.7708 44.8246 28.6054 45.7288 30.4706C44.8339 32.3549 43.8736 34.206 42.8499 36.0204ZM48.7543 3.31339C50.9977 4.63749 51.8703 9.97697 50.4607 16.9791C50.3707 17.4258 50.2696 17.8808 50.1597 18.3423C47.3797 17.6856 44.3613 17.1973 41.2011 16.8939C39.3601 14.2112 37.4525 11.7721 35.5375 9.66067C36.0394 9.16562 36.5532 8.6834 37.0785 8.21446C42.025 3.80966 46.648 2.07045 48.7543 3.31339ZM33.5 24.3199C36.8042 24.3199 39.4829 27.0611 39.4829 30.4423C39.4829 33.8235 36.8042 36.5646 33.5 36.5646C30.1958 36.5646 27.5171 33.8235 27.5171 30.4423C27.5171 27.0611 30.1958 24.3199 33.5 24.3199Z" fill="#00D8FF"/>
</svg>
