<svg width="40" height="40" viewBox="0 0 40 40" fill="none" xmlns="http://www.w3.org/2000/svg">
<path d="M34 11.606C33.2203 12.7278 32.2637 13.6841 31.1302 14.4748C31.1414 14.6869 31.147 14.9266 31.147 15.1939C31.147 16.6793 30.9231 18.1664 30.4754 19.6553C30.0276 21.1443 29.3436 22.5695 28.4234 23.9309C27.5033 25.2923 26.4072 26.4984 25.1351 27.5492C23.8631 28.5999 22.3341 29.4378 20.548 30.0627C18.762 30.6876 16.8478 31 14.8056 31C11.6183 31 8.68308 30.1677 6 28.5032C6.47621 28.5544 6.93295 28.58 7.37019 28.58C10.0329 28.58 12.4112 27.7867 14.5049 26.2002C13.2634 26.1781 12.1515 25.8085 11.1693 25.0912C10.1871 24.3739 9.51115 23.4573 9.14149 22.3414C9.50687 22.4087 9.8675 22.4424 10.2234 22.4424C10.7356 22.4424 11.2396 22.3778 11.7355 22.2485C10.4106 21.9919 9.31141 21.3536 8.43806 20.3337C7.56473 19.3138 7.12807 18.1366 7.12807 16.8022V16.7334C7.94132 17.1689 8.80877 17.4006 9.73044 17.4284C8.94556 16.9223 8.32327 16.2623 7.86357 15.4484C7.40384 14.6346 7.17397 13.7538 7.17397 12.8062C7.17397 11.8068 7.43289 10.8761 7.95073 10.0142C9.39156 11.7245 11.1374 13.0913 13.1883 14.1148C15.2393 15.1384 17.4396 15.7068 19.7892 15.8201C19.6889 15.4162 19.6387 14.9946 19.6386 14.5555C19.6386 13.0221 20.1996 11.7129 21.3215 10.6277C22.4435 9.54258 23.7972 9 25.3824 9C27.0421 9 28.4401 9.58455 29.5764 10.7536C30.8746 10.5049 32.0902 10.055 33.2231 9.40396C32.7866 10.7326 31.9456 11.7576 30.7 12.4789C31.8448 12.3473 32.9449 12.0563 34 11.606Z" fill="black"/>
</svg>
