<svg width="66" height="55" viewBox="0 0 66 55" fill="none" xmlns="http://www.w3.org/2000/svg">
<path d="M64.845 31.3499C64.6247 31.1596 64.3633 31.0247 64.0819 30.9563C62.4279 32.6688 60.3654 34.4462 58.5814 35.6562C57.7214 36.2131 56.6592 36.4852 55.9704 36.4852C54.3493 36.4852 53.6605 34.9591 53.4666 32.472C53.1103 27.9854 52.9527 23.4847 52.9943 18.9837C52.9943 12.6823 51.565 8.37393 47.8279 8.04735L47.3329 8.01386C45.0457 8.01386 43.9175 9.21342 42.4676 12.2553C41.1992 14.8826 39.2441 18.6781 35.6472 25.9383C32.928 31.4242 29.7052 36.6377 26.0218 41.5096C25.1618 42.5668 24.508 43.2974 23.8727 43.7454C23.518 43.9967 23.0993 44.1264 22.658 44.139C21.4762 44.139 20.5955 43.1362 20.3274 40.758C20.2496 40.1178 20.2137 39.4729 20.2202 38.8278C20.2202 33.9437 22.0351 25.9948 25.1618 14.3278C27.449 5.81151 26.4838 0 21.4783 0H21.404C20.2759 0 19.3416 0.448005 18.4279 1.17863C17.5246 1.87576 16.6439 3.43541 15.7859 5.52889C14.8517 7.87359 9.13666 19.572 0.00627286 25.6242C-0.100974 27.8915 1.16742 30.1818 3.7764 30.4539C6.10695 30.6821 7.78371 29.6793 9.9307 28.1971L9.48934 30.2362C8.93445 32.6336 8.47552 35.0529 8.1137 37.488C6.8453 49.2199 12.1643 55 18.4052 55C19.4468 55 20.4883 54.8576 21.5092 54.575C28.3833 52.8186 34.9789 44.7838 42.8203 26.3025C42.7134 28.1799 42.7024 30.0617 42.7873 31.9403C43.3132 42.5501 47.4072 45.7007 53.2397 45.7007C57.643 45.7007 61.7369 43.3895 63.8303 40.4775C65.1851 38.7337 65.9464 36.591 66 34.3708C65.9464 32.9975 65.5277 31.9068 64.8388 31.3499H64.845Z" fill="#ED5353"/>
</svg>
