<svg width="62" height="44" viewBox="0 0 62 44" fill="none" xmlns="http://www.w3.org/2000/svg">
<path d="M61.3463 9.48444C61.3463 9.48444 60.7411 5.18222 58.877 3.27556C56.5287 0.782222 53.8899 0.782222 52.6552 0.635556C44.0127 0 31.0121 0 31.0121 0H30.9879C30.9879 0 17.9875 0 9.29637 0.635556C8.08591 0.782222 5.44704 0.782222 3.07457 3.27556C1.23467 5.18222 0.629445 9.48444 0.629445 9.48444C0.629445 9.48444 0 14.5689 0 19.6289V24.3711C0 29.4311 0.629445 34.4911 0.629445 34.4911C0.629445 34.4911 1.23467 38.7933 3.09879 40.7C5.44704 43.1933 8.54583 43.12 9.92581 43.3644C14.8887 43.8533 30.9879 44 30.9879 44C30.9879 44 44.0125 43.9756 52.6794 43.34C53.8899 43.1933 56.5287 43.1933 58.9012 40.7C60.7653 38.7933 61.3706 34.4911 61.3706 34.4911C61.3706 34.4911 62 29.4311 62 24.3711V19.6289C61.9758 14.5689 61.3463 9.48444 61.3463 9.48444ZM24.5968 30.1156V12.54L41.3494 21.3644L24.5968 30.1156Z" fill="url(#paint0_linear)"/>
<defs>
<linearGradient id="paint0_linear" x1="30.9876" y1="0" x2="30.9876" y2="44.0132" gradientUnits="userSpaceOnUse">
<stop stop-color="#E52D27"/>
<stop offset="1" stop-color="#BF171D"/>
</linearGradient>
</defs>
</svg>
