<svg width="128" height="128" viewBox="0 0 128 128" fill="none" xmlns="http://www.w3.org/2000/svg">
<path d="M11.2302 31.3155L18.4443 33.0967H26.0191C41.8902 33.0967 49.8257 35.7091 49.8257 40.9338C46.4591 49.0085 39.1248 62.486 27.8227 81.3664L26.5602 84.5725V85.285L35.0368 85.8193H45.8579C50.9078 85.8193 56.7993 84.8694 63.5325 82.9695C66.5383 84.5131 68.0413 86.2349 68.0413 88.1349C68.0413 92.8846 60.6468 95.6751 45.8579 96.5064H39.5456C21.7508 96.5064 12.8534 94.2502 12.8534 89.7379C12.8534 86.6506 20.849 71.8668 36.8403 45.3868V44.1399L36.2992 43.7837H20.9693C10.9898 43.0712 6 40.8151 6 37.0153C6 34.4029 7.74341 32.503 11.2302 31.3155Z" fill="#F3AC42"/>
<path d="M103.506 29C112.283 33.1561 116.491 46.3961 116.13 68.7201C116.732 80.5946 118.355 88.8473 121 93.4784V94.1908C120.76 96.6845 118.836 98.2875 115.229 99C108.616 98.4063 105.249 82.257 105.129 50.5522L102.604 42.3588L100.44 42.1807C96.3518 47.0492 94.0072 52.9864 93.4061 59.9924C92.6846 65.2171 92.5043 73.7074 92.865 85.4631C91.0615 88.6692 88.9574 90.1535 86.5527 89.916C82.4647 89.3223 80.601 81.6039 80.9617 66.7608C78.7975 51.6802 76.4529 44.0212 73.928 43.7837H72.8459C69.2388 44.8524 67.0746 48.5929 66.3532 55.0051L68.1567 89.5598L67.9764 91.8753C67.6156 94.4877 65.5115 96.2689 61.664 97.2188C55.6523 96.6251 53.5481 75.9042 55.3517 35.056C55.7124 32.5623 57.576 30.8999 60.9426 30.0687C64.3092 31.3749 65.9324 32.8592 65.8121 34.5216H66.3532L74.469 33.2748C78.557 33.7498 82.645 36.9559 86.733 42.8931L87.0937 43.0712C92.7448 34.8779 98.2155 30.1874 103.506 29Z" fill="#F3AC42"/>
</svg>
